HIERARCHY
ROOT Hips
{
	OFFSET 0.000000 0.000000 0.000000
	CHANNELS 6 Xposition Yposition Zposition Xrotation Yrotation Zrotation
	JOINT LeftUpLeg_virtual
	{
		OFFSET 0.000000 0.000000 0.000000
		CHANNELS 3 Xrotation Yrotation Zrotation
		JOINT LeftUpLeg
		{
			OFFSET 13.026900 -6.336304 -1.092800
			CHANNELS 3 Xrotation Yrotation Zrotation
			JOINT LeftLeg
			{
				OFFSET 0.524474 -46.096886 9.782700
				CHANNELS 3 Xrotation Yrotation Zrotation
				JOINT LeftFoot
				{
					OFFSET -0.524474 -53.427422 -12.948200
					CHANNELS 3 Xrotation Yrotation Zrotation
					JOINT LeftToeBase
					{
						OFFSET 0.192200 -14.009700 16.364100
						CHANNELS 3 Xrotation Yrotation Zrotation
						JOINT LeftToe_End
						{
							OFFSET -1.784700 -0.561700 9.474800
							CHANNELS 3 Xrotation Yrotation Zrotation
							End Site
							{
								OFFSET 0 0 0
							}
						}
					}
				}
			}
		}
	}
	JOINT RightUpLeg_virtual
	{
		OFFSET 0.000000 0.000000 0.000000
		CHANNELS 3 Xrotation Yrotation Zrotation
		JOINT RightUpLeg
		{
			OFFSET -12.883000 -6.336304 -1.092800
			CHANNELS 3 Xrotation Yrotation Zrotation
			JOINT RightLeg
			{
				OFFSET -0.524587 -46.096825 9.782800
				CHANNELS 3 Xrotation Yrotation Zrotation
				JOINT RightFoot
				{
					OFFSET 0.524587 -53.427383 -12.948300
					CHANNELS 3 Xrotation Yrotation Zrotation
					JOINT RightToeBase
					{
						OFFSET -0.192200 -14.009700 16.364100
						CHANNELS 3 Xrotation Yrotation Zrotation
						JOINT RightToe_End
						{
							OFFSET 1.784700 -0.561700 9.474800
							CHANNELS 3 Xrotation Yrotation Zrotation
							End Site
							{
								OFFSET 0 0 0
							}
						}
					}
				}
			}
		}
	}
	JOINT Spine_virtual
	{
		OFFSET 0.000000 0.000000 0.000000
		CHANNELS 3 Xrotation Yrotation Zrotation
		JOINT Spine
		{
			OFFSET 0.072000 7.257294 -0.789700
			CHANNELS 3 Xrotation Yrotation Zrotation
			JOINT Spine1
			{
				OFFSET 0.000000 12.508769 -0.658067
				CHANNELS 3 Xrotation Yrotation Zrotation
				JOINT Spine1_split
				{
					OFFSET 0.000000 12.508769 -0.658067
					CHANNELS 3 Xrotation Yrotation Zrotation
					JOINT Spine2
					{
						OFFSET 0.000000 12.508769 -0.658067
						CHANNELS 3 Xrotation Yrotation Zrotation
						JOINT Neck_virtual
						{
							OFFSET 0.000000 0.000000 0.000000
							CHANNELS 3 Xrotation Yrotation Zrotation
							JOINT Neck
							{
								OFFSET 0.000000 14.033295 7.520400
								CHANNELS 3 Xrotation Yrotation Zrotation
								JOINT Head
								{
									OFFSET 0.000000 8.198502 5.703100
									CHANNELS 3 Xrotation Yrotation Zrotation
									JOINT HeadTop_End
									{
										OFFSET 0.000000 17.760803 13.332701
										CHANNELS 3 Xrotation Yrotation Zrotation
										End Site
										{
											OFFSET 0 0 0
										}
									}
								}
							}
						}
						JOINT LeftShoulder_virtual
						{
							OFFSET 0.000000 0.000000 0.000000
							CHANNELS 3 Xrotation Yrotation Zrotation
							JOINT LeftShoulder
							{
								OFFSET 6.292450 5.785301 -0.669000
								CHANNELS 3 Xrotation Yrotation Zrotation
								JOINT LeftShoulder_split
								{
									OFFSET 6.292450 5.785301 -0.669000
									CHANNELS 3 Xrotation Yrotation Zrotation
									JOINT LeftArm
									{
										OFFSET 13.907140 -6.093903 1.965100
										CHANNELS 3 Xrotation Yrotation Zrotation
										JOINT LeftForeArm
										{
											OFFSET 34.140198 0.000000 0.000000
											CHANNELS 3 Xrotation Yrotation Zrotation
											JOINT LeftHand
											{
												OFFSET 40.960209 0.000000 0.000000
												CHANNELS 3 Xrotation Yrotation Zrotation
												End Site
												{
													OFFSET 0 0 0
												}
											}
										}
									}
								}
							}
						}
						JOINT RightShoulder_virtual
						{
							OFFSET 0.000000 0.000000 0.000000
							CHANNELS 3 Xrotation Yrotation Zrotation
							JOINT RightShoulder
							{
								OFFSET -6.292450 5.785301 -0.669000
								CHANNELS 3 Xrotation Yrotation Zrotation
								JOINT RightShoulder_split
								{
									OFFSET -6.292450 5.785301 -0.669000
									CHANNELS 3 Xrotation Yrotation Zrotation
									JOINT RightArm
									{
										OFFSET -13.907140 -6.093903 1.965100
										CHANNELS 3 Xrotation Yrotation Zrotation
										JOINT RightForeArm
										{
											OFFSET -34.140198 0.000000 0.000000
											CHANNELS 3 Xrotation Yrotation Zrotation
											JOINT RightHand
											{
												OFFSET -40.960209 0.000000 0.000000
												CHANNELS 3 Xrotation Yrotation Zrotation
												End Site
												{
													OFFSET 0 0 0
												}
											}
										}
									}
								}
							}
						}
					}
				}
			}
		}
	}
}
MOTION
Frames: 8
Frame Time: 0.03333333
-2.562245 99.751579 -8.626270 0.000000 0.000000 0.000000 5.782886 -54.069765 5.658837 -36.200669 18.605517 30.491498 37.082890 -13.263372 -3.397462 -3.688167 -0.119077 -10.473976 -1.323747 -1.615262 -1.708563 0.000000 0.000000 0.000000 4.998896 -52.711158 5.190467 -30.173675 -4.372137 -21.576093 40.418051 13.693653 -3.349154 -11.213129 -4.485302 27.130813 3.894892 5.911792 -9.079306 0.000000 0.000000 0.000000 1.973405 -44.172770 3.281068 5.455670 3.820792 -2.968942 10.358849 -4.552854 -3.867486 0.206511 -0.441794 0.124124 0.000000 0.000000 0.000000 13.803602 -1.521627 -3.921509 -17.004480 28.332315 2.088867 -40.044842 48.926424 19.453192 0.000000 0.000000 0.000000 13.827531 -4.008055 -4.288366 -0.531982 -5.031362 -0.428647 -2.436207 -3.378033 -0.743929 -31.308156 -0.209963 -33.279834 28.006100 -44.846862 19.991351 0.000000 0.000000 0.000000 15.342943 -2.811192 -3.663983 -9.031864 9.111856 -0.351096 6.192214 3.790943 2.700186 -44.001018 -25.356732 30.551788 177.538856 66.732499 -177.620777 0.000000 0.000000 0.000000 
-2.596511 99.771118 -8.633427 0.000000 0.000000 0.000000 5.675987 -53.972209 5.789886 -35.693998 18.530718 30.127879 36.298374 -13.061446 -3.353233 -3.572632 -0.097293 -10.749891 -0.936583 -1.625656 -1.717634 0.000000 0.000000 0.000000 5.057779 -52.723931 5.461392 -30.234365 -3.865964 -21.739416 40.487780 13.780726 -3.384240 -11.326726 -4.318361 27.661937 3.905482 5.994191 -9.184163 0.000000 0.000000 0.000000 2.300360 -44.044728 3.550771 5.512796 3.661318 -3.033153 10.556735 -4.447011 -3.678966 0.159464 -0.409294 0.143001 0.000000 0.000000 0.000000 13.836853 -1.378421 -3.739255 -16.117467 27.891969 2.169521 -38.026839 47.361751 17.953704 0.000000 0.000000 0.000000 13.901806 -3.907526 -4.172513 -0.473098 -4.823123 -1.496477 -2.565765 -3.312214 -0.639849 -29.556882 0.187934 -33.188640 28.741532 -45.660262 20.503832 0.000000 0.000000 0.000000 15.359938 -2.652243 -3.436948 -8.948232 9.471680 0.165399 6.699905 3.417959 3.044842 -45.072439 -24.537651 29.712361 178.986637 65.736199 -179.105373 0.000000 0.000000 0.000000 
-2.681213 99.999634 -8.614452 0.000000 0.000000 0.000000 5.874206 -53.878144 6.283487 -35.191703 18.472745 29.565440 35.338852 -12.833691 -3.328678 -3.349930 -0.004309 -11.077982 -0.646389 -1.629380 -1.698544 0.000000 0.000000 0.000000 5.314110 -52.734603 5.992834 -30.319118 -3.627356 -21.914571 40.381759 13.758001 -3.364259 -11.360573 -4.325829 28.117631 3.837293 6.082600 -9.243383 0.000000 0.000000 0.000000 2.941390 -43.956437 4.114590 5.636117 3.489008 -3.201181 10.673347 -4.276679 -3.496582 0.116882 -0.412870 0.149234 0.000000 0.000000 0.000000 13.908115 -1.183482 -3.565001 -15.585397 27.466206 2.376558 -36.848071 46.204850 16.837140 0.000000 0.000000 0.000000 13.922809 -3.741409 -4.059477 -0.368906 -4.521981 -2.303741 -2.721790 -3.070775 -0.723157 -27.944324 0.279794 -33.131991 28.928904 -45.541847 20.481919 0.000000 0.000000 0.000000 15.318157 -2.451679 -3.220353 -8.935109 9.572345 0.734294 7.154818 3.078094 3.496752 -45.807712 -23.283367 29.362580 -179.674096 65.453675 179.508723 0.000000 0.000000 0.000000 
-2.775682 100.252510 -8.545322 0.000000 0.000000 0.000000 6.207087 -53.825012 7.007813 -34.835396 18.418237 28.886434 34.581183 -12.671122 -3.263932 -3.113752 0.103395 -11.463909 -0.589868 -1.617535 -1.669806 0.000000 0.000000 0.000000 5.682478 -52.769591 6.698976 -30.449222 -3.643245 -22.103983 40.368385 13.618135 -3.330729 -11.517545 -4.549043 28.372688 3.813532 6.148498 -9.211532 0.000000 0.000000 0.000000 3.612987 -43.911617 4.822420 5.853600 3.337314 -3.472241 10.737546 -4.071238 -3.352631 0.091668 -0.441512 0.118565 0.000000 0.000000 0.000000 14.040194 -0.970100 -3.438526 -15.448034 27.058522 2.691359 -36.385917 45.495344 16.094668 0.000000 0.000000 0.000000 13.938937 -3.539236 -3.968337 -0.225732 -4.234725 -2.667109 -2.899595 -2.793228 -0.949706 -26.747458 0.035499 -32.996115 28.529567 -44.503532 19.967396 0.000000 0.000000 0.000000 15.292841 -2.236477 -3.044896 -8.957182 9.461627 1.239208 7.402410 2.862032 3.803246 -46.262944 -22.082401 29.482512 -178.530435 65.617805 178.296050 0.000000 0.000000 0.000000 
-2.841284 100.400589 -8.424244 0.000000 0.000000 0.000000 6.613259 -53.834827 7.862161 -34.626706 18.357213 28.148601 34.201441 -12.540557 -3.157104 -3.008812 0.243290 -11.811780 -0.677609 -1.585253 -1.699178 0.000000 0.000000 0.000000 6.056418 -52.812525 7.483971 -30.609476 -3.813751 -22.318640 40.549392 13.406513 -3.311040 -11.835490 -4.933769 28.431106 3.759557 6.188956 -9.066420 0.000000 0.000000 0.000000 4.101656 -43.898927 5.545096 6.164522 3.221490 -3.812543 10.769287 -3.877704 -3.282614 0.102623 -0.482103 0.086634 0.000000 0.000000 0.000000 14.235822 -0.767438 -3.395951 -15.553249 26.703050 3.040207 -36.407992 45.246253 15.691439 0.000000 0.000000 0.000000 13.987666 -3.339452 -3.923523 -0.059281 -3.961216 -2.579038 -3.013973 -2.755976 -1.159648 -26.074155 -0.436610 -32.812198 27.788468 -42.903789 19.236700 0.000000 0.000000 0.000000 15.328432 -2.034728 -2.956842 -8.974761 9.203058 1.534458 7.495344 2.867863 3.904334 -46.534291 -21.350847 29.943396 -177.713299 65.899619 177.376748 0.000000 0.000000 0.000000 
-2.879151 100.404793 -8.293705 0.000000 0.000000 0.000000 7.012361 -53.852476 8.706197 -34.615098 18.252697 27.460400 34.161519 -12.484000 -3.011366 -3.004378 0.397980 -12.188062 -0.752392 -1.518856 -1.828853 0.000000 0.000000 0.000000 6.450414 -52.812809 8.267250 -30.777884 -4.027585 -22.547638 40.943794 13.207232 -3.340413 -12.246586 -5.344918 28.424478 3.650652 6.201803 -8.834984 0.000000 0.000000 0.000000 4.349144 -43.897701 6.190389 6.502297 3.151215 -4.139805 10.776736 -3.722165 -3.311194 0.109495 -0.510864 0.072971 0.000000 0.000000 0.000000 14.438294 -0.607960 -3.461804 -15.730346 26.414836 3.338421 -36.508847 45.488367 15.506111 0.000000 0.000000 0.000000 14.060428 -3.169172 -3.951830 0.116796 -3.729009 -2.154904 -3.100359 -2.899302 -1.471293 -25.887831 -0.883642 -32.637834 26.931786 -41.165543 18.525751 0.000000 0.000000 0.000000 15.407363 -1.877280 -2.983151 -8.979130 8.887442 1.586844 7.574512 3.080939 3.727449 -46.604143 -21.367434 30.653438 -177.291712 66.003779 176.816427 0.000000 0.000000 0.000000 
-2.912857 100.293633 -8.142048 0.000000 0.000000 0.000000 7.409789 -53.857408 9.458240 -34.719160 18.144667 26.919522 34.258791 -12.513072 -2.871292 -3.010424 0.481616 -12.621416 -0.855631 -1.432599 -1.989098 0.000000 0.000000 0.000000 6.852403 -52.752078 8.987066 -30.934719 -4.183556 -22.781596 41.432471 13.088996 -3.420161 -12.678928 -5.635502 28.478465 3.506403 6.205080 -8.574894 0.000000 0.000000 0.000000 4.430878 -43.937804 6.731946 6.790384 3.125426 -4.369317 10.748554 -3.630083 -3.434099 0.116230 -0.523878 0.070368 0.000000 0.000000 0.000000 14.589764 -0.519578 -3.632149 -15.812052 26.222128 3.496090 -36.435928 46.134103 15.432403 0.000000 0.000000 0.000000 14.134719 -3.066076 -4.063867 0.300193 -3.586013 -1.543464 -3.093098 -3.076236 -1.797620 -25.961821 -1.069101 -32.547419 26.088292 -39.648032 17.935616 0.000000 0.000000 0.000000 15.516421 -1.786258 -3.114650 -8.962226 8.639903 1.431391 7.604524 3.286281 3.426469 -46.471234 -22.132608 31.528447 -177.252643 65.828496 176.647106 0.000000 0.000000 0.000000 
-2.973169 100.135239 -7.988972 0.000000 0.000000 0.000000 7.820740 -53.858897 10.110232 -34.863857 18.094416 26.564127 34.324013 -12.557152 -2.788800 -3.013079 0.499234 -12.959477 -0.904086 -1.350369 -2.147391 0.000000 0.000000 0.000000 7.254083 -52.578226 9.599750 -31.083969 -4.246350 -23.019281 41.896831 13.072372 -3.535513 -13.077468 -5.765413 28.637055 3.377134 6.205654 -8.345100 0.000000 0.000000 0.000000 4.433256 -44.009255 7.188984 7.005902 3.125870 -4.445740 10.680386 -3.614979 -3.637101 0.119950 -0.507583 0.085584 0.000000 0.000000 0.000000 14.661942 -0.514978 -3.872355 -15.698481 26.155163 3.444238 -36.053106 47.179013 15.368293 0.000000 0.000000 0.000000 14.186469 -3.054874 -4.258513 0.489755 -3.519041 -0.923725 -3.106252 -3.218169 -2.068715 -26.097956 -0.868030 -32.603037 25.300337 -38.496066 17.465924 0.000000 0.000000 0.000000 15.598180 -1.778742 -3.328497 -8.930581 8.508110 1.114203 7.691312 3.529465 3.070601 -46.136739 -23.333572 32.430435 -177.404410 65.520803 176.705736 0.000000 0.000000 0.000000 
